<mxfile host="app.diagrams.net" modified="2023-09-10T19:36:31.496Z" agent="Mozilla/5.0 (Windows NT 10.0; Win64; x64) AppleWebKit/537.36 (KHTML, like Gecko) Chrome/116.0.0.0 Safari/537.36" etag="6KZwHtYpAjyHo9UKQjUs" version="21.7.4" type="github">
  <diagram name="Page-1" id="Kx_-0o9Y2fsoPvErGUYo">
    <mxGraphModel dx="1050" dy="566" grid="1" gridSize="10" guides="1" tooltips="1" connect="1" arrows="1" fold="1" page="1" pageScale="1" pageWidth="850" pageHeight="1100" math="0" shadow="0">
      <root>
        <mxCell id="0" />
        <mxCell id="1" parent="0" />
        <mxCell id="lzHXDAtcDSYOleWVQcHh-1" value="&lt;b&gt;&lt;font style=&quot;font-size: 18px;&quot;&gt;LEAP YEAR&lt;/font&gt;&lt;/b&gt;" style="rounded=1;whiteSpace=wrap;html=1;fillColor=#dae8fc;strokeColor=#6c8ebf;" vertex="1" parent="1">
          <mxGeometry x="337.57" y="100" width="180" height="40" as="geometry" />
        </mxCell>
        <mxCell id="lzHXDAtcDSYOleWVQcHh-2" value="" style="strokeWidth=2;html=1;shape=mxgraph.flowchart.annotation_2;align=left;labelPosition=right;pointerEvents=1;rotation=90;" vertex="1" parent="1">
          <mxGeometry x="375.17" y="105.35" width="104.8" height="175.14" as="geometry" />
        </mxCell>
        <mxCell id="lzHXDAtcDSYOleWVQcHh-5" value="&lt;b&gt;&lt;font style=&quot;font-size: 18px;&quot;&gt;NOT A LEAP YEAR&lt;/font&gt;&lt;/b&gt;" style="rounded=1;whiteSpace=wrap;html=1;" vertex="1" parent="1">
          <mxGeometry x="210" y="227" width="180" height="60" as="geometry" />
        </mxCell>
        <mxCell id="lzHXDAtcDSYOleWVQcHh-7" value="&lt;font size=&quot;3&quot;&gt;&lt;b&gt;Numbers of days in a year divided by 4&lt;/b&gt;&lt;/font&gt;" style="rounded=1;whiteSpace=wrap;html=1;" vertex="1" parent="1">
          <mxGeometry x="440" y="240" width="160" height="60" as="geometry" />
        </mxCell>
        <mxCell id="lzHXDAtcDSYOleWVQcHh-9" value="" style="endArrow=classic;html=1;rounded=0;strokeWidth=3;" edge="1" parent="1">
          <mxGeometry width="50" height="50" relative="1" as="geometry">
            <mxPoint x="514.5" y="300" as="sourcePoint" />
            <mxPoint x="514.93" y="370" as="targetPoint" />
          </mxGeometry>
        </mxCell>
        <mxCell id="lzHXDAtcDSYOleWVQcHh-13" value="" style="edgeStyle=orthogonalEdgeStyle;rounded=0;orthogonalLoop=1;jettySize=auto;html=1;strokeWidth=3;" edge="1" parent="1">
          <mxGeometry relative="1" as="geometry">
            <mxPoint x="517.57" y="410" as="sourcePoint" />
            <mxPoint x="517.57" y="490" as="targetPoint" />
            <Array as="points">
              <mxPoint x="517.57" y="450" />
              <mxPoint x="518.57" y="450" />
            </Array>
          </mxGeometry>
        </mxCell>
        <mxCell id="lzHXDAtcDSYOleWVQcHh-10" value="&lt;b style=&quot;border-color: var(--border-color); font-size: medium;&quot;&gt;Numbers of days in a year divided by 400&lt;/b&gt;" style="rounded=1;whiteSpace=wrap;html=1;" vertex="1" parent="1">
          <mxGeometry x="440" y="370" width="170" height="60" as="geometry" />
        </mxCell>
        <mxCell id="lzHXDAtcDSYOleWVQcHh-14" value="&lt;font style=&quot;font-size: 18px;&quot;&gt;&lt;b&gt;Yes, It is a Leap Year&lt;/b&gt;&lt;/font&gt;" style="rounded=1;whiteSpace=wrap;html=1;" vertex="1" parent="1">
          <mxGeometry x="440" y="490" width="160" height="60" as="geometry" />
        </mxCell>
      </root>
    </mxGraphModel>
  </diagram>
</mxfile>
